<?xml version="1.0" encoding="UTF-8"?><svg id="Layer_1" xmlns="http://www.w3.org/2000/svg" viewBox="0 0 1600 377.87"><defs><style>.cls-1{fill:#72be44;}.cls-2{fill:#fff;}</style></defs><path class="cls-1" d="M1322.17,122.02c-29.83,0-54.8,19.65-63.44,46.61h-135.69V63.84c0-35.26-28.58-63.84-63.84-63.84H63.84C28.58,0,0,28.58,0,63.84v250.18c0,35.26,28.58,63.84,63.84,63.84h995.35c35.26,0,63.84-28.58,63.84-63.84v-104.78h135.69c8.64,26.96,33.61,46.61,63.44,46.61,36.96,0,66.92-29.96,66.92-66.92s-29.96-66.92-66.92-66.92Z"/><path class="cls-2" d="M126.04,296.05c-11.33,0-21.14-2.43-29.39-7.31-8.25-4.87-14.61-11.53-19.09-19.99-4.48-8.45-6.71-17.95-6.71-28.49V87.19h28.63v156.64c0,7.76,2.44,14.17,7.31,19.25,4.87,5.07,11.3,7.61,19.25,7.61h56.1v25.37h-56.1Z"/><path class="cls-2" d="M284.16,296.05c-16.7,0-31.52-3.13-44.45-9.4-12.94-6.26-23.04-15.11-30.3-26.55-7.26-11.44-10.89-24.81-10.89-40.13s3.08-28.69,9.26-40.73c6.16-12.03,14.72-21.52,25.66-28.49,10.93-6.96,23.66-10.45,38.2-10.45,15.71,0,28.79,3.39,39.22,10.15,10.45,6.76,18.26,15.87,23.43,27.31,5.17,11.44,7.76,24.22,7.76,38.34,0,2.2-.05,4.48-.14,6.86-.11,2.39-.35,4.48-.74,6.27h-113.38c.99,9.35,4.07,17.26,9.24,23.72,5.17,6.47,11.79,11.34,19.83,14.63,8.06,3.28,16.96,4.92,26.72,4.92h39.68v23.57h-39.1ZM227.48,209.83h86.82c0-3.78-.39-7.81-1.19-12.09-.8-4.28-2.2-8.46-4.18-12.54-2-4.07-4.62-7.76-7.92-11.04-3.28-3.28-7.35-5.91-12.24-7.91-4.87-1.98-10.59-2.98-17.14-2.98-6.98,0-13.09,1.35-18.36,4.03-5.26,2.69-9.79,6.27-13.56,10.74-3.79,4.48-6.68,9.51-8.66,15.07-1.98,5.58-3.19,11.15-3.58,16.72Z"/><path class="cls-2" d="M432.16,299.63c-6.76,0-12.89-1.94-18.35-5.82-5.49-3.88-9.51-9.39-12.09-16.56l-49.53-133.37h30.14l44.16,123.23c.78,1.99,1.68,3.38,2.67,4.18.99.8,2.09,1.2,3.29,1.2,1.38,0,2.53-.4,3.44-1.2.89-.8,1.74-2.19,2.53-4.18l44.45-123.23h29.55l-49.55,133.37c-2.78,7.16-6.85,12.68-12.22,16.56-5.38,3.88-11.55,5.82-18.5,5.82Z"/><path class="cls-2" d="M591.5,299.63c-14.72,0-27.45-3.53-38.2-10.59-10.73-7.06-18.98-16.65-24.76-28.79-5.77-12.13-8.66-25.56-8.66-40.28s3.19-28.39,9.54-40.43c6.37-12.03,15.53-21.59,27.46-28.64,11.93-7.07,26.26-10.6,42.96-10.6s29.94,3.49,41.47,10.45c11.55,6.97,20.45,16.41,26.7,28.34,6.27,11.93,9.4,25.27,9.4,39.98v76.98h-27.75v-31.03h-.6c-2.97,5.77-7.01,11.29-12.08,16.57-5.06,5.27-11.39,9.6-18.95,12.97-7.56,3.38-16.41,5.07-26.56,5.07ZM598.67,276.06c9.93,0,18.73-2.43,26.4-7.31,7.65-4.87,13.62-11.63,17.9-20.28,4.27-8.66,6.41-18.35,6.41-29.09s-2.04-19.99-6.11-28.35c-4.09-8.35-9.9-14.96-17.46-19.84-7.56-4.87-16.41-7.3-26.56-7.3-10.73,0-19.94,2.49-27.59,7.45-7.67,4.98-13.53,11.69-17.6,20.14-4.09,8.46-6.13,18.05-6.13,28.79s1.98,19.74,5.97,28.2c3.98,8.46,9.74,15.17,17.32,20.14,7.54,4.97,16.7,7.45,27.45,7.45Z"/><path class="cls-2" d="M785.15,299.63c-11.55,0-22.08-1.84-31.63-5.52-9.54-3.68-17.81-9.1-24.77-16.26-6.96-7.16-12.38-15.76-16.26-25.81-3.88-10.04-5.83-21.33-5.83-33.87,0-15.91,3.24-29.69,9.7-41.32,6.46-11.64,15.32-20.64,26.56-27,11.23-6.37,23.82-9.55,37.73-9.55,7.76,0,15.18,1.3,22.22,3.88,7.07,2.59,13.39,6.17,18.95,10.75,5.58,4.58,9.95,9.94,13.14,16.11h.6v-92.79h27.45v140.83c0,16.91-3.44,31.39-10.31,43.42-6.85,12.03-16.1,21.23-27.75,27.6-11.63,6.37-24.91,9.54-39.82,9.54ZM785.15,276.06c9.35,0,17.8-2.28,25.36-6.86,7.56-4.58,13.58-11.04,18.06-19.4,4.46-8.35,6.71-18.19,6.71-29.54s-2.25-21.53-6.71-29.99c-4.48-8.46-10.5-14.96-18.06-19.54-7.56-4.58-16.11-6.86-25.66-6.86s-17.85,2.38-25.52,7.15c-7.65,4.78-13.72,11.34-18.2,19.7-4.46,8.35-6.71,18.1-6.71,29.24s2.28,21.49,6.87,29.84c4.57,8.36,10.7,14.82,18.35,19.4,7.67,4.58,16.17,6.86,25.52,6.86Z"/><path class="cls-2" d="M899.72,296.05v-25.37h90.42c6.96,0,12.93-1.64,17.9-4.92,4.96-3.28,8.84-7.5,11.63-12.68,2.78-5.17,4.18-10.64,4.18-16.41s-1.35-11.49-4.04-16.57c-2.67-5.07-6.46-9.15-11.33-12.24-4.87-3.08-10.8-4.62-17.76-4.62h-39.38c-11.74,0-22.08-2.43-31.02-7.31-8.96-4.87-15.97-11.63-21.04-20.28-5.08-8.66-7.61-18.45-7.61-29.39s2.44-21.18,7.31-30.13c4.87-8.95,11.74-16.02,20.59-21.19,8.84-5.17,19.04-7.76,30.58-7.76h88.61v25.36h-85.93c-6.55,0-12.32,1.54-17.3,4.62-4.98,3.09-8.75,7.07-11.33,11.94-2.59,4.87-3.88,10.09-3.88,15.66s1.24,10.49,3.72,15.36c2.5,4.88,6.16,8.81,11.05,11.79,4.87,2.98,10.48,4.47,16.86,4.47h40.28c12.52,0,23.27,2.49,32.21,7.46,8.96,4.97,15.83,11.73,20.59,20.28,4.78,8.55,7.17,18.31,7.17,29.24,0,12.14-2.44,22.93-7.31,32.37-4.89,9.46-11.79,16.86-20.74,22.23-8.96,5.37-19.21,8.06-30.74,8.06h-93.69Z"/><path d="M1600,168.63h-133.8c-9.94-70.69-70.65-125.31-144.04-125.31v40.53c57.95,0,105.1,47.15,105.1,105.1s-47.15,105.08-105.1,105.08v40.53c73.39,0,134.11-54.61,144.04-125.3h133.8v-40.62Z"/></svg>